<?xml version="1.0" standalone="no"?>
<!DOCTYPE svg PUBLIC "-//W3C//DTD SVG 20010904//EN"
 "http://www.w3.org/TR/2001/REC-SVG-20010904/DTD/svg10.dtd">
<svg version="1.0" xmlns="http://www.w3.org/2000/svg"
 width="753.000000pt" height="753.000000pt" viewBox="0 0 753.000000 753.000000"
 preserveAspectRatio="xMidYMid meet">
<metadata>
Created by potrace 1.11, written by Peter Selinger 2001-2013
</metadata>
<g transform="translate(0.000000,753.000000) scale(0.100000,-0.100000)"
fill="#000000" stroke="none">
<path d="M1275 7523 c-11 -3 -47 -14 -79 -25 -163 -54 -289 -209 -331 -408 -5
-19 -9 -995 -10 -2169 -2 -2124 -1 -2158 28 -2276 3 -11 7 -27 9 -35 1 -8 5
-17 8 -20 3 -3 18 -30 33 -61 75 -150 232 -247 416 -255 259 -12 463 141 537
401 15 52 18 123 20 544 2 266 5 486 8 489 3 3 14 -6 25 -19 10 -13 27 -34 37
-46 11 -12 30 -36 44 -53 14 -18 30 -37 35 -44 6 -6 26 -31 45 -56 19 -25 37
-47 40 -50 3 -3 53 -63 110 -135 58 -71 109 -135 115 -141 5 -6 21 -25 35 -43
14 -18 30 -38 35 -44 6 -7 28 -34 50 -62 22 -27 43 -52 46 -55 3 -3 43 -52 88
-110 46 -58 88 -110 94 -115 7 -6 17 -18 22 -27 10 -16 254 -319 265 -328 3
-3 52 -63 110 -135 57 -71 109 -135 115 -142 56 -63 238 -256 310 -328 89 -89
243 -215 264 -215 6 0 11 -4 11 -9 0 -5 8 -11 18 -15 9 -3 31 -15 47 -25 86
-56 312 -155 405 -176 3 0 14 -4 25 -8 11 -3 31 -9 45 -11 128 -27 179 -36
237 -43 90 -10 412 -10 488 1 33 4 74 10 90 12 112 14 375 94 445 135 8 5 22
12 30 15 72 27 271 146 350 210 199 160 354 352 466 575 26 52 53 106 61 122
8 15 11 27 6 27 -4 0 -3 4 3 8 9 6 69 175 79 222 36 164 34 156 54 300 10 75
8 3141 -2 3181 -37 143 -113 250 -222 315 -192 112 -476 84 -630 -63 -54 -51
-87 -98 -112 -158 -20 -48 -26 -71 -38 -145 -4 -19 -7 -318 -7 -663 l0 -628
-22 14 c-11 8 -43 22 -71 32 -27 10 -54 22 -60 25 -18 13 -219 72 -285 85
-100 19 -140 23 -274 30 -54 3 -101 6 -105 7 -3 0 -8 0 -11 -1 -3 -1 -48 -4
-100 -5 -107 -4 -164 -11 -257 -31 -13 -3 -33 -7 -45 -10 -19 -4 -59 -13 -90
-21 -5 -1 -9 -2 -10 -3 -2 -2 -13 -4 -26 -7 -13 -2 -36 -11 -53 -19 -16 -9
-29 -13 -29 -11 0 10 -224 -91 -285 -129 -22 -14 -47 -28 -55 -32 -14 -6 -84
-53 -120 -80 -135 -102 -244 -209 -351 -343 -45 -58 -138 -195 -146 -218 -4
-9 -9 -19 -12 -22 -4 -3 -20 -32 -38 -65 -24 -48 -28 -64 -19 -76 11 -16 93
-113 131 -155 11 -12 34 -40 52 -61 17 -21 41 -49 53 -63 24 -28 110 -128 150
-177 9 -10 58 -67 110 -128 52 -60 104 -121 115 -134 30 -36 149 -174 160
-187 6 -6 25 -29 44 -52 18 -23 38 -42 43 -42 5 0 7 3 4 8 -29 47 -26 372 5
475 0 1 2 13 5 27 13 72 77 237 125 320 47 82 148 188 235 247 118 80 227 114
385 119 92 3 141 -1 234 -20 55 -12 188 -72 222 -101 6 -5 30 -26 54 -45 23
-19 50 -43 58 -53 9 -10 30 -34 47 -53 128 -145 229 -450 225 -679 -1 -51 -1
-76 0 -95 0 -15 -15 -116 -26 -175 -11 -57 -46 -168 -72 -224 -15 -31 -27 -59
-27 -62 -1 -3 -20 -35 -44 -72 -104 -161 -261 -277 -437 -323 -108 -28 -325
-25 -425 5 -135 42 -209 87 -310 192 -81 84 -82 85 -121 151 -42 70 -89 139
-108 159 -9 9 -31 35 -49 57 -18 23 -45 54 -60 70 -15 16 -43 48 -62 72 -19
24 -53 65 -75 90 -22 25 -60 70 -85 99 -109 129 -173 203 -190 221 -8 8 -31
35 -50 60 -19 25 -42 52 -50 60 -8 9 -37 42 -65 74 -54 63 -56 66 -125 147
-70 82 -291 341 -350 409 -70 82 -69 74 -11 124 19 17 46 42 60 54 14 13 51
46 81 72 30 27 71 63 90 80 19 18 64 57 99 88 36 32 76 68 91 82 14 14 57 52
94 85 38 33 86 76 107 95 44 40 75 68 179 160 155 138 217 215 262 329 18 46
22 76 22 166 1 114 1 113 -57 234 -45 93 -183 207 -273 226 -184 40 -370 -23
-562 -189 -13 -12 -75 -70 -137 -131 -62 -60 -215 -209 -340 -330 -125 -121
-274 -265 -330 -320 -293 -286 -367 -356 -372 -352 -2 3 -5 585 -7 1293 -2
1166 -4 1294 -19 1337 -9 26 -17 51 -17 55 -5 23 -58 123 -84 157 -98 125
-224 186 -395 190 -53 1 -105 0 -116 -2z"/>
<path d="M480 947 c-50 -25 -50 -32 -48 -478 3 -450 1 -430 59 -456 32 -14 82
5 100 39 9 14 14 65 15 133 1 61 3 113 3 118 2 16 18 5 36 -25 10 -18 29 -42
42 -54 13 -12 23 -26 23 -32 0 -6 3 -12 8 -14 4 -1 35 -37 70 -79 80 -98 117
-116 167 -83 50 33 42 99 -22 170 -15 17 -50 57 -78 89 -27 32 -60 69 -71 83
l-21 24 45 42 c130 118 142 132 142 168 0 32 -20 61 -56 81 -24 14 -82 -25
-181 -121 -57 -54 -103 -96 -104 -93 0 3 -2 103 -3 221 -1 169 -5 220 -16 237
-24 36 -71 49 -110 30z"/>
<path d="M3469 929 c-16 -17 -29 -39 -30 -48 0 -9 -1 -69 0 -133 0 -65 -2
-118 -4 -118 -2 0 -23 10 -46 22 -25 13 -67 23 -105 26 -104 7 -193 -44 -244
-140 -39 -72 -49 -120 -47 -213 3 -108 31 -180 96 -243 53 -51 97 -72 169 -78
47 -5 68 -1 106 16 25 13 53 31 60 42 14 19 15 19 28 -8 26 -55 114 -57 146
-5 16 27 18 65 17 438 -1 470 1 457 -89 469 -21 3 -35 -3 -57 -27z m-106 -428
c87 -48 98 -224 20 -303 -49 -49 -127 -45 -175 8 -60 67 -55 206 11 273 29 30
44 38 75 38 22 0 53 -7 69 -16z"/>
<path d="M1087 660 c-15 -8 -31 -28 -37 -45 -10 -31 -13 -486 -3 -542 4 -25
14 -36 46 -52 40 -20 42 -20 71 -3 50 29 54 48 54 247 0 196 6 224 55 254 47
30 132 6 159 -43 8 -14 12 -91 13 -219 1 -184 3 -199 22 -218 11 -11 26 -21
34 -22 8 -2 19 -5 24 -9 17 -11 71 21 84 49 13 28 17 399 5 449 -16 69 -63
126 -123 151 -82 35 -209 24 -253 -22 l-21 -22 -24 27 c-28 33 -68 41 -106 20z"/>
<path d="M1923 666 c-90 -29 -147 -81 -190 -173 -23 -50 -42 -133 -37 -166 1
-9 4 -33 7 -54 14 -100 80 -192 172 -241 43 -23 62 -27 135 -26 69 0 94 4 131
23 113 57 178 161 184 295 6 141 -65 265 -188 327 -52 27 -155 34 -214 15z
m133 -156 c100 -39 127 -222 44 -308 -34 -36 -63 -46 -110 -38 -87 13 -141
144 -104 250 31 87 97 124 170 96z"/>
<path d="M2453 672 c-32 -5 -73 -51 -73 -81 0 -32 18 -58 95 -146 84 -94 83
-91 43 -133 -19 -21 -50 -55 -69 -76 -19 -21 -39 -44 -44 -50 -41 -45 -53 -69
-50 -103 4 -42 21 -62 60 -69 16 -3 32 -7 35 -9 12 -8 47 24 106 97 68 84 103
123 107 117 70 -89 145 -178 160 -192 26 -22 89 -22 109 1 53 60 46 80 -75
219 -49 56 -89 104 -89 108 0 8 50 69 106 128 50 54 69 98 56 131 -13 35 -52
58 -91 54 -32 -3 -67 -37 -157 -152 l-22 -29 -23 25 c-12 13 -35 41 -52 62
-69 88 -92 105 -132 98z"/>
<path d="M3884 659 c-45 -17 -99 -60 -142 -113 -28 -34 -54 -109 -61 -175 -11
-109 21 -204 93 -275 41 -41 61 -53 137 -84 26 -10 135 -10 194 1 81 15 184
83 186 124 2 32 -2 45 -21 65 -26 28 -56 26 -131 -12 -97 -48 -190 -42 -246
17 -21 22 -39 61 -31 68 2 2 90 5 195 5 106 1 201 4 212 7 48 12 50 115 4 210
-71 148 -240 219 -389 162z m151 -134 c17 -4 38 -15 49 -24 18 -16 46 -70 46
-91 0 -6 -50 -10 -139 -10 l-140 0 10 33 c12 37 71 94 103 99 24 5 30 4 71 -7z"/>
<path d="M5085 671 c-115 -30 -175 -117 -159 -228 8 -53 55 -104 127 -137 96
-43 142 -66 159 -78 14 -10 23 -9 49 6 17 10 53 19 80 20 27 0 49 2 49 2 0 1
-6 13 -13 27 -19 37 -64 70 -142 105 -119 54 -140 66 -143 85 -4 22 25 51 53
54 11 1 47 -9 80 -22 73 -29 84 -31 112 -21 15 5 27 21 34 47 11 35 10 43 -7
67 -43 59 -188 97 -279 73z"/>
<path d="M4345 644 c-20 -22 -24 -34 -20 -66 3 -22 13 -56 21 -76 9 -21 17
-41 18 -47 3 -17 126 -329 136 -347 6 -10 10 -23 10 -30 1 -37 66 -76 115 -69
49 7 53 15 176 330 87 222 97 264 70 300 -22 28 -97 39 -123 18 -13 -10 -98
-238 -113 -302 -2 -10 -10 -31 -24 -70 -6 -15 -19 13 -52 115 -24 74 -44 138
-45 143 -1 4 -3 9 -4 12 -1 3 -3 9 -4 14 0 5 -4 13 -8 17 -5 4 -8 15 -8 24 0
29 -43 60 -84 60 -27 0 -43 -7 -61 -26z"/>
<path d="M5700 483 c-63 -17 -130 -60 -130 -83 0 -5 -3 -10 -8 -10 -4 0 -16
-16 -27 -36 -19 -36 -26 -131 -13 -185 24 -103 121 -174 222 -165 73 7 98 15
124 44 27 31 28 53 2 77 -20 18 -24 18 -80 3 -52 -14 -61 -14 -90 0 -82 40
-84 189 -3 227 31 15 43 16 82 6 79 -21 93 -16 107 37 8 29 -17 57 -65 73 -38
13 -96 18 -121 12z"/>
<path d="M6077 474 c-56 -20 -94 -50 -122 -99 -78 -133 -35 -292 98 -360 36
-18 142 -13 184 9 62 32 106 90 119 157 12 65 11 85 -8 144 -25 76 -89 140
-151 151 -71 12 -81 12 -120 -2z m119 -125 c22 -18 37 -56 39 -104 4 -72 -34
-125 -91 -125 -49 0 -63 9 -85 52 -32 63 -16 148 33 182 26 18 79 16 104 -5z"/>
<path d="M6579 463 c-42 -23 -42 -23 -56 -3 -18 25 -54 26 -83 2 -22 -17 -22
-24 -22 -215 0 -207 2 -220 47 -237 28 -10 62 8 72 39 5 14 8 81 8 148 -2 103
1 128 16 153 15 24 26 30 52 30 63 0 71 -22 77 -192 5 -142 6 -150 29 -167 13
-10 33 -16 48 -13 41 8 51 44 50 190 0 125 1 134 23 157 41 43 103 29 116 -27
4 -18 8 -87 9 -153 0 -66 5 -127 10 -136 25 -41 82 -41 104 0 7 11 11 82 11
168 0 124 -4 155 -19 190 -28 61 -78 87 -158 85 -38 -1 -123 -38 -123 -54 0
-7 -12 0 -27 14 -51 48 -123 56 -184 21z"/>
<path d="M4929 190 c-18 -17 -29 -39 -29 -56 0 -62 130 -133 241 -130 48 1 54
3 50 21 -2 11 -4 45 -4 76 -1 55 -2 56 -28 54 -15 -1 -57 11 -94 27 -93 41
-103 42 -136 8z"/>
<path d="M5279 162 c-25 -22 -32 -36 -31 -62 1 -45 17 -72 49 -87 36 -17 59
-16 94 4 59 35 59 121 0 156 -42 24 -76 21 -112 -11z"/>
</g>
</svg>
