<?xml version="1.0" encoding="UTF-8" standalone="no"?>
<!-- Generated by IcoMoon.io -->

<svg
   xmlns:dc="http://purl.org/dc/elements/1.1/"
   xmlns:cc="http://creativecommons.org/ns#"
   xmlns:rdf="http://www.w3.org/1999/02/22-rdf-syntax-ns#"
   xmlns:svg="http://www.w3.org/2000/svg"
   xmlns="http://www.w3.org/2000/svg"
   xmlns:sodipodi="http://sodipodi.sourceforge.net/DTD/sodipodi-0.dtd"
   xmlns:inkscape="http://www.inkscape.org/namespaces/inkscape"
   version="1.1"
   width="64"
   height="64"
   viewBox="0 0 64 64"
   id="svg2"
   inkscape:version="0.92.2 (5c3e80d, 2017-08-06)"
   sodipodi:docname="icon-link.svg">
  <metadata
     id="metadata12">
    <rdf:RDF>
      <cc:Work
         rdf:about="">
        <dc:format>image/svg+xml</dc:format>
        <dc:type
           rdf:resource="http://purl.org/dc/dcmitype/StillImage" />
      </cc:Work>
    </rdf:RDF>
  </metadata>
  <defs
     id="defs10" />
  <sodipodi:namedview
     pagecolor="#ffffff"
     bordercolor="#666666"
     borderopacity="1"
     objecttolerance="10"
     gridtolerance="10"
     guidetolerance="10"
     inkscape:pageopacity="0"
     inkscape:pageshadow="2"
     inkscape:window-width="1366"
     inkscape:window-height="705"
     id="namedview8"
     showgrid="false"
     inkscape:zoom="3.6875"
     inkscape:cx="15.69242"
     inkscape:cy="15.098961"
     inkscape:window-x="-8"
     inkscape:window-y="-8"
     inkscape:window-maximized="1"
     inkscape:current-layer="svg2" />
  <path
     id="path6"
     d="m 16,63.25 c -4.073,0 -7.903,-1.586 -10.783,-4.466 -5.946,-5.946 -5.946,-15.621 0,-21.567 l 5.485,-5.485 c 1.269,-1.269 3.327,-1.269 4.596,0 1.269,1.269 1.269,3.327 0,4.596 l -5.485,5.485 c -3.412,3.412 -3.412,8.963 0,12.374 1.652,1.653 3.85,2.563 6.187,2.563 2.337,0 4.535,-0.91 6.187,-2.563 l 12,-12 c 3.412,-3.412 3.412,-8.963 0,-12.374 -1.269,-1.269 -1.269,-3.327 0,-4.596 1.269,-1.269 3.327,-1.269 4.596,0 5.946,5.946 5.946,15.621 0,21.567 l -12,12 c -2.881,2.88 -6.71,4.467 -10.784,4.467 z M 27.515,39.735 c -0.832,0 -1.663,-0.317 -2.298,-0.952 -5.946,-5.946 -5.946,-15.621 0,-21.567 l 12,-12 c 2.88,-2.88 6.71,-4.467 10.783,-4.467 4.073,0 7.903,1.586 10.784,4.466 5.946,5.946 5.946,15.621 0,21.567 l -5.485,5.485 c -1.269,1.269 -3.327,1.269 -4.596,0 -1.269,-1.269 -1.269,-3.327 0,-4.596 l 5.485,-5.485 c 3.412,-3.412 3.412,-8.963 0,-12.374 -1.653,-1.653 -3.85,-2.563 -6.187,-2.563 -2.337,0 -4.535,0.91 -6.187,2.563 l -12,12 c -3.412,3.412 -3.412,8.963 0,12.374 1.269,1.269 1.269,3.327 0,4.596 -0.634,0.635 -1.466,0.952 -2.298,0.952 z"
     style="fill:#828282" />
</svg>
