<?xml version="1.0" encoding="UTF-8" standalone="no"?>
<svg
   xmlns:dc="http://purl.org/dc/elements/1.1/"
   xmlns:cc="http://creativecommons.org/ns#"
   xmlns:rdf="http://www.w3.org/1999/02/22-rdf-syntax-ns#"
   xmlns:svg="http://www.w3.org/2000/svg"
   xmlns="http://www.w3.org/2000/svg"
   xmlns:sodipodi="http://sodipodi.sourceforge.net/DTD/sodipodi-0.dtd"
   xmlns:inkscape="http://www.inkscape.org/namespaces/inkscape"
   version="1.1"
   id="svg2"
   viewBox="0 0 539.25083 515.38076"
   height="145.4519mm"
   width="152.18857mm"
   sodipodi:docname="icon-meetup.svg"
   inkscape:version="0.92.2 (5c3e80d, 2017-08-06)">
  <sodipodi:namedview
     pagecolor="#ffffff"
     bordercolor="#666666"
     borderopacity="1"
     objecttolerance="10"
     gridtolerance="10"
     guidetolerance="10"
     inkscape:pageopacity="0"
     inkscape:pageshadow="2"
     inkscape:window-width="749"
     inkscape:window-height="480"
     id="namedview824"
     showgrid="false"
     inkscape:zoom="0.42929425"
     inkscape:cx="-2.4104265"
     inkscape:cy="274.86974"
     inkscape:window-x="0"
     inkscape:window-y="0"
     inkscape:window-maximized="0"
     inkscape:current-layer="svg2" />
  <defs
     id="defs4" />
  <metadata
     id="metadata7">
    <rdf:RDF>
      <cc:Work
         rdf:about="">
        <dc:format>image/svg+xml</dc:format>
        <dc:type
           rdf:resource="http://purl.org/dc/dcmitype/StillImage" />
        <dc:title />
      </cc:Work>
    </rdf:RDF>
  </metadata>
  <path
     inkscape:connector-curvature="0"
     style="fill:#828282"
     d="m 250.29049,513.8076 c -6.1811,-2.69125 -9.269,-7.61073 -9.269,-14.76682 0,-5.36272 0.5643,-6.77077 4.1514,-10.35783 5.2764,-5.27642 11.4877,-6.59892 17.5289,-3.73222 12.2378,5.80725 12.4115,22.75917 0.2895,28.26474 -6.0344,2.74071 -7.5986,2.81364 -12.7008,0.59213 z m 138.856,-24.9593 c -20.0356,-8.75264 -20.934,-36.16479 -1.482,-45.22152 3.5651,-1.65989 7.8882,-3.02036 9.607,-3.02323 18.5265,-0.0311 31.3253,20.06941 23.0695,36.23081 -5.536,10.8374 -20.6039,16.64049 -31.1945,12.01394 z M 190.49023,478.00967 c -32.41762,-5.42719 -59.94811,-28.83604 -69.98691,-59.50907 -1.16262,-3.55232 -2.79522,-10.52827 -3.62801,-15.50211 l -1.51416,-9.04336 -7.48234,-2.06182 C 69.3856,381.2862 43.19289,342.00216 48.54597,302.90546 c 2.31847,-16.93315 8.24149,-30.37251 19.31268,-43.82059 l 5.80555,-7.05195 -3.22714,-6.36847 c -5.04687,-9.95951 -7.32405,-20.59787 -7.24146,-33.83009 0.1293,-20.71683 7.89739,-39.02741 22.7864,-53.71106 10.68692,-10.53954 23.0043,-17.02929 39.01077,-20.55393 2.57038,-0.566 4.08978,-2.36084 6.55271,-7.7406 7.89029,-17.23466 24.22409,-35.94831 41.1933,-47.19518 33.1077,-21.94318 77.16501,-24.15797 113.80161,-5.7209 l 9.894,4.97903 6.5776,-1.91215 c 9.5936,-2.78895 25.9577,-4.12361 37.1708,-3.03167 34.5183,3.3614 65.7215,25.20711 80.7636,56.54345 6.458,13.45375 8.7891,22.55012 9.6753,37.75584 l 0.7308,12.53782 7.6103,3.57546 c 15.4151,7.24233 28.0464,24.4908 30.7537,41.9951 2.3564,15.236 -2.9708,33.63556 -12.9303,44.65951 -2.4831,2.74851 -4.5147,5.65093 -4.5147,6.44983 0,0.79891 1.3422,4.10574 2.9826,7.3485 14.1842,28.03839 12.8919,64.60064 -3.2568,92.14595 -6.2263,10.62035 -23.7126,28.30543 -33.894,34.27911 -10.8985,6.39451 -25.8922,11.23264 -39.9064,12.87686 -9.2547,1.08584 -12.5997,1.95734 -13.0572,3.40192 -2.4516,7.74255 -9.2453,18.94775 -15.619,25.76128 -8.5459,9.13559 -22.2135,16.83207 -34.3815,19.36087 -15.4908,3.21937 -36.3317,-0.82567 -49.3335,-9.57524 -3.457,-2.32639 -6.729,-4.2298 -7.2712,-4.2298 -0.5422,0 -4.828,2.24528 -9.5241,4.9895 -17.7485,10.37166 -39.05579,14.44443 -58.52016,11.18581 z M 367.66669,368.77335 c 7.6309,-2.72152 9.6048,-5.21491 9.6048,-12.13273 0,-9.62087 -2.5329,-11.22599 -24.2025,-15.33753 -11.6816,-2.21646 -15.3597,-4.36553 -17.9075,-10.46344 -4.4842,-10.73213 0.901,-29.17838 23.0965,-79.11378 12.7046,-28.58279 15.653,-37.80669 15.7479,-49.26651 0.073,-8.81617 -0.3576,-10.80971 -3.6383,-16.83981 -6.1229,-11.25462 -13.9624,-15.02505 -31.2211,-15.016 -8.0254,0.004 -11.3203,0.61988 -16.6866,3.11802 -3.6777,1.71204 -7.7066,3.11279 -8.9532,3.11279 -1.2466,0 -5.5502,-2.72875 -9.5634,-6.0639 -9.838,-8.17571 -11.5618,-8.9361 -20.2583,-8.9361 -9.6331,0 -13.0075,1.35431 -21.4135,8.59436 -14.5582,12.53894 -15.743,12.6647 -34.5577,3.66846 -12.52288,-5.98777 -14.28901,-6.49233 -22.94231,-6.55429 -17.48983,-0.12524 -31.77488,9.64406 -40.08943,27.41647 -9.35608,19.99869 -39.49078,114.73811 -40.79835,128.26449 -1.30158,13.46443 4.99815,25.00765 17.30286,31.70471 5.42251,2.9513 8.56307,3.72421 16.69444,4.10864 8.60267,0.4067 10.80643,0.0643 15.62251,-2.42718 3.08386,-1.59536 7.39096,-5.26647 9.57134,-8.15802 2.53803,-3.3659 11.91925,-25.30643 26.07511,-60.98378 12.3035,-31.00884 23.47723,-57.35035 25.19153,-59.38764 9.3406,-11.10071 24.1444,-1.22917 20.4519,13.63783 -0.7842,3.15752 -7.5787,21.27269 -15.0989,40.25594 -15.57099,39.3061 -16.42268,43.55265 -10.0192,49.95616 3.2433,3.24327 4.5144,3.65385 11.3121,3.65385 8.6437,0 13.2709,-1.91861 17.9026,-7.42312 1.7415,-2.06962 14.7757,-26.76304 28.9649,-54.87429 14.4686,-28.66458 27.2992,-52.54898 29.2153,-54.38478 1.8792,-1.80037 5.1872,-3.6275 7.3512,-4.06029 3.2064,-0.64127 4.556,-0.16521 7.2941,2.57283 4.9466,4.94661 3.8413,9.27966 -9.4743,37.14257 -27.0388,56.5787 -26.6198,55.54189 -27.1917,67.27708 -0.4248,8.71728 -0.032,11.91476 2.1903,17.80833 3.5065,9.30068 13.0812,19.83739 21.7552,23.94087 12.9098,6.1073 38.4602,8.83169 48.6717,5.18979 z M 85.59185,427.9187 c -1.26754,-0.73682 -3.10321,-3.25097 -4.07927,-5.587 -1.53441,-3.67235 -1.53288,-4.82599 0.0113,-8.52173 2.12012,-5.07405 5.21417,-6.97561 11.35016,-6.97561 9.59126,0 13.92642,10.9114 7.41137,18.65409 -2.54669,3.02656 -4.2111,3.83781 -7.8125,3.8079 -2.51701,-0.0209 -5.61346,-0.64085 -6.88101,-1.37765 z M 492.16209,297.73434 c -7.5863,-5.11237 -9.4658,-13.10587 -4.8586,-20.6627 5.1543,-8.45407 16.5363,-9.72667 23.6218,-2.64113 7.0856,7.08555 5.813,18.4675 -2.6411,23.62181 -5.4249,3.30749 -10.9026,3.19945 -16.1221,-0.31799 z M 15.56805,268.75335 C 1.2815,263.66034 -4.52293,245.96051 3.91303,233.21292 c 5.53842,-8.36912 18.39534,-12.41455 27.96457,-8.79904 8.03015,3.034 15.33897,13.71707 15.33897,22.42048 0,9.69243 -7.75568,19.82999 -17.17142,22.44499 -6.00708,1.66834 -8.58438,1.57469 -14.4771,-0.526 z m 504.10724,-44.32284 c -5.993,-5.99308 -4.7162,-14.43977 2.7679,-18.30994 9.767,-5.05074 20.5772,5.80528 15.5196,15.5855 -3.8479,7.44109 -12.3101,8.70178 -18.2875,2.72444 z m -56.7788,-48.8609 c -5.3674,-1.14665 -8.6541,-3.14256 -12.2895,-7.46301 -7.7451,-9.2046 -4.4113,-24.09751 6.6507,-29.70974 6.8845,-3.49284 11.4538,-3.54865 18.322,-0.22381 10.0627,4.87129 14.0034,16.35777 8.9501,26.08814 -4.5887,8.83551 -12.8919,13.17588 -21.6333,11.30842 z M 101.5845,117.57611 c -9.94365,-4.33118 -13.75664,-15.94013 -8.54549,-26.0174 5.65719,-10.93977 24.07328,-11.26031 31.09668,-0.54124 5.58021,8.51647 2.28751,21.14804 -6.70913,25.73778 -5.79282,2.95527 -10.39442,3.1937 -15.84206,0.82086 z M 294.31809,60.00334 c -5.5187,-1.96736 -11.3987,-7.12533 -14.1664,-12.42693 -3.0953,-5.9292 -1.7443,-18.09263 2.6494,-23.85305 8.1358,-10.6666 25.0167,-12.31442 34.8702,-3.40383 6.4611,5.84285 8.9784,18.35005 5.4114,26.88701 -2.2323,5.34255 -9.5893,11.67109 -15.4645,13.30266 -5.9744,1.6591 -7.3768,1.60576 -13.3001,-0.50586 z M 152.89648,25.64183 c -7.63732,-3.15901 -10.78237,-12.69062 -6.3962,-19.38477 2.67337,-4.08007 9.25897,-7.06257 13.38674,-6.06262 4.27328,1.0352 9.62771,6.37531 10.53518,10.50701 1.1049,5.03056 -2.46525,11.77278 -7.49872,14.16132 -4.59037,2.17827 -6.31941,2.31261 -10.027,0.77906 z"
     id="path4149" />
</svg>
