<svg xmlns="http://www.w3.org/2000/svg" height="16" width="16" id="Layer_1">
  <g transform="translate(-9.562 -9.358) scale(.12791)" id="Layer_2" fill="#828282">
    <g id="g15">
      <path id="rect7" class="st0" transform="rotate(-18.522 137.286 135.803)" d="M128.5 127.3h17.6v17h-17.6z"/>
      <g id="g13">
        <path id="rect9" class="st0" transform="rotate(-18.522 137.286 135.803)" d="M128.5 127.3h17.6v17h-17.6z"/>
        <path id="path11" d="M194.6 118.5c-12.9-43-31.5-53-74.5-40.1-43 12.9-53 31.5-40.1 74.5 12.9 43 31.5 53 74.5 40.1 43-12.9 53-31.5 40.1-74.5zm-21.7 27.9l-8.1 2.7 2.8 8.4c1.1 3.4-.7 7.1-4.1 8.2-.7.2-1.5.4-2.2.3-2.6-.1-5.1-1.8-6-4.4l-2.8-8.4-16.7 5.6 2.8 8.4c1.1 3.4-.7 7.1-4.1 8.2-.7.2-1.5.4-2.2.3-2.6-.1-5.1-1.8-6-4.4l-2.8-8.4-8.1 2.7c-.7.2-1.5.4-2.2.3-2.6-.1-5.1-1.8-6-4.4-1.1-3.4.7-7.1 4.1-8.2l8.1-2.7-5.4-16.1-8.1 2.7c-.7.2-1.5.4-2.2.3-2.6-.1-5.1-1.8-6-4.4-1.1-3.4.7-7.1 4.1-8.2l8.1-2.7-2.8-8.4c-1.1-3.4.7-7.1 4.1-8.2 3.4-1.1 7.1.7 8.2 4.1l2.8 8.4 16.7-5.6-2.8-8.4c-1.1-3.4.7-7.1 4.1-8.2 3.4-1.1 7.1.7 8.2 4.1l2.8 8.4 8.1-2.7c3.4-1.1 7.1.7 8.2 4.1 1.1 3.4-.7 7.1-4.1 8.2l-8.1 2.7 5.4 16.1 8.1-2.7c3.4-1.1 7.1.7 8.2 4.1 1.1 3.4-.7 7.1-4.1 8.2z" class="st0"/>
      </g>
    </g>
  </g>
</svg>