<?xml version="1.0" encoding="UTF-8" standalone="no"?>
<svg
   xmlns:dc="http://purl.org/dc/elements/1.1/"
   xmlns:cc="http://creativecommons.org/ns#"
   xmlns:rdf="http://www.w3.org/1999/02/22-rdf-syntax-ns#"
   xmlns:svg="http://www.w3.org/2000/svg"
   xmlns="http://www.w3.org/2000/svg"
   version="1.1"
   id="svg2"
   xml:space="preserve"
   width="666.66663"
   height="753.16504"
   viewBox="0 0 666.66663 753.16504"><metadata
     id="metadata8"><rdf:RDF><cc:Work
         rdf:about=""><dc:format>image/svg+xml</dc:format><dc:type
           rdf:resource="http://purl.org/dc/dcmitype/StillImage" /><dc:title></dc:title></cc:Work></rdf:RDF></metadata><defs
     id="defs6"><clipPath
       clipPathUnits="userSpaceOnUse"
       id="clipPath18"><path
         d="M 0,1098 H 1938 V 0 H 0 Z"
         id="path16" /></clipPath></defs><g
     id="g10"
     transform="matrix(1.3333333,0,0,-1.3333333,-958.66624,1092.1201)"><g
       id="g12"><g
         id="g14"
         clip-path="url(#clipPath18)"><g
           id="g20"
           transform="translate(743.9697,283.041)"><path
             d="m 0,0 11.745,10.488 c 1.733,1.584 2.6,3.332 2.6,5.244 0,1.526 -0.539,2.901 -1.615,4.127 -1.075,1.223 -2.406,1.838 -3.99,1.838 -1.971,0 -3.973,-0.959 -6.006,-2.871 L -11.745,4.797 v 30.84 c 0,1.435 -0.283,2.714 -0.852,3.836 -0.568,1.118 -1.353,1.986 -2.353,2.597 -1.001,0.612 -2.146,0.921 -3.43,0.921 -1.972,0 -3.563,-0.682 -4.774,-2.043 -1.21,-1.356 -1.816,-3.127 -1.816,-5.311 v -56.529 c 0,-2.18 0.606,-3.951 1.816,-5.311 1.211,-1.36 2.802,-2.039 4.774,-2.039 1.255,0 2.392,0.305 3.407,0.917 1.016,0.615 1.808,1.479 2.376,2.601 0.569,1.122 0.852,2.397 0.852,3.832 v 16.05 h 0.179 L 4.571,-24.746 c 1.197,-1.435 2.272,-2.471 3.228,-3.116 0.956,-0.641 2.004,-0.962 3.139,-0.962 1.733,0 3.205,0.604 4.415,1.815 1.211,1.208 1.815,2.696 1.815,4.458 0,1.674 -0.552,3.139 -1.659,4.395 z"
             style="fill:#37ccfe;fill-opacity:1;fill-rule:nonzero;stroke:none"
             id="path22" /></g><g
           id="g24"
           transform="translate(799.6465,303.1465)"><path
             d="m 0,0 c -2.749,1.42 -5.857,2.128 -9.324,2.128 -5.919,0 -10.162,-1.808 -12.733,-5.423 -0.238,1.524 -0.888,2.721 -1.949,3.585 -1.06,0.869 -2.443,1.302 -4.146,1.302 -1.972,0 -3.564,-0.683 -4.775,-2.039 -1.21,-1.362 -1.815,-3.131 -1.815,-5.316 v -35.234 c 0,-2.181 0.605,-3.951 1.815,-5.312 1.211,-1.36 2.803,-2.039 4.775,-2.039 1.254,0 2.391,0.306 3.406,0.917 1.016,0.616 1.808,1.48 2.377,2.602 0.568,1.122 0.851,2.396 0.851,3.832 v 23.042 c 0,1.764 0.329,3.317 0.986,4.663 0.658,1.346 1.629,2.411 2.915,3.206 1.284,0.789 2.794,1.189 4.527,1.189 2.569,0 4.655,-0.772 6.252,-2.312 1.6,-1.539 2.399,-3.786 2.399,-6.746 v -23.042 c 0,-2.181 0.606,-3.951 1.817,-5.312 1.209,-1.36 2.801,-2.039 4.773,-2.039 1.256,0 2.391,0.306 3.407,0.917 1.017,0.616 1.809,1.48 2.376,2.602 0.568,1.122 0.851,2.396 0.851,3.832 v 25.327 c 0,3.679 -0.777,6.855 -2.331,9.527 C 4.901,-3.467 2.749,-1.42 0,0"
             style="fill:#37ccfe;fill-opacity:1;fill-rule:nonzero;stroke:none"
             id="path26" /></g><g
           id="g28"
           transform="translate(847.0078,273.2119)"><path
             d="m 0,0 c -0.792,-2.05 -1.974,-3.712 -3.542,-4.983 -1.568,-1.276 -3.489,-1.909 -5.761,-1.909 -2.24,0 -4.145,0.633 -5.714,1.909 -1.569,1.271 -2.751,2.933 -3.543,4.983 -0.792,2.05 -1.187,4.2 -1.187,6.444 0,2.214 0.388,4.369 1.164,6.467 0.778,2.095 1.967,3.791 3.566,5.096 1.599,1.305 3.503,1.953 5.714,1.953 2.272,0 4.2,-0.656 5.782,-1.976 1.585,-1.315 2.766,-3.015 3.543,-5.094 C 0.798,10.806 1.187,8.658 1.187,6.444 1.187,4.2 0.791,2.05 0,0 m 7.8,24.31 c -2.108,2.389 -4.633,4.279 -7.576,5.669 -2.945,1.39 -6.12,2.084 -9.527,2.084 -3.377,0 -6.529,-0.686 -9.458,-2.062 -2.928,-1.375 -5.455,-3.272 -7.576,-5.691 -2.123,-2.423 -3.757,-5.181 -4.909,-8.272 -1.15,-3.093 -1.726,-6.283 -1.726,-9.571 0,-4.604 0.993,-8.857 2.982,-12.755 1.987,-3.899 4.788,-6.992 8.405,-9.277 3.616,-2.289 7.71,-3.43 12.282,-3.43 3.468,0 6.687,0.679 9.661,2.039 2.975,1.361 5.485,3.198 7.531,5.514 2.049,2.314 3.645,5.019 4.798,8.113 1.149,3.094 1.725,6.359 1.725,9.796 0,3.407 -0.576,6.635 -1.725,9.683 -1.153,3.049 -2.78,5.767 -4.887,8.16"
             style="fill:#37ccfe;fill-opacity:1;fill-rule:nonzero;stroke:none"
             id="path30" /></g><g
           id="g32"
           transform="translate(907.3237,265.6904)"><path
             d="m 0,0 -13.403,15.244 11.206,12.595 c 1.345,1.614 2.018,3.198 2.018,4.753 0,1.703 -0.695,3.205 -2.085,4.506 -1.389,1.298 -2.965,1.95 -4.729,1.95 -1.762,0 -3.377,-0.869 -4.841,-2.603 l -9.279,-11.565 -9.28,11.565 c -1.464,1.734 -3.078,2.603 -4.841,2.603 -1.764,0 -3.34,-0.646 -4.73,-1.928 -1.391,-1.286 -2.084,-2.795 -2.084,-4.528 0,-1.555 0.671,-3.139 2.016,-4.753 L -28.825,15.244 -42.229,0 c -0.566,-0.597 -1.016,-1.312 -1.344,-2.151 -0.329,-0.834 -0.493,-1.614 -0.493,-2.329 0,-1.913 0.606,-3.459 1.815,-4.641 1.211,-1.182 2.773,-1.771 4.685,-1.771 1.344,0 2.384,0.224 3.116,0.671 0.733,0.451 1.531,1.197 2.399,2.244 l 10.938,13.404 10.938,-13.404 c 0.866,-1.047 1.666,-1.793 2.398,-2.244 0.733,-0.447 1.771,-0.671 3.114,-0.671 1.914,0 3.474,0.589 4.685,1.771 1.212,1.182 1.815,2.728 1.815,4.641 0,0.834 -0.17,1.658 -0.514,2.463 C 0.979,-1.208 0.539,-0.537 0,0"
             style="fill:#37ccfe;fill-opacity:1;fill-rule:nonzero;stroke:none"
             id="path34" /></g><g
           id="g36"
           transform="translate(943.7471,273.5693)"><path
             d="m 0,0 c -0.762,-2.14 -1.936,-3.88 -3.519,-5.229 -1.584,-1.349 -3.498,-2.02 -5.739,-2.02 -1.612,0 -3.07,0.38 -4.371,1.141 -1.299,0.767 -2.384,1.799 -3.25,3.1 -0.867,1.301 -1.522,2.763 -1.972,4.38 -0.449,1.613 -0.672,3.187 -0.672,4.715 0,2.214 0.389,4.353 1.166,6.422 0.777,2.065 1.95,3.762 3.519,5.095 1.569,1.334 3.429,1.999 5.58,1.999 3.317,0 5.881,-1.291 7.689,-3.862 C 0.239,13.165 1.143,10.098 1.143,6.534 1.143,4.32 0.763,2.14 0,0 M 11.162,51.542 C 10.161,52.153 9.017,52.463 7.732,52.463 5.761,52.463 4.169,51.78 2.958,50.42 1.749,49.063 1.143,47.293 1.143,45.108 V 27.132 c -1.225,1.047 -2.511,1.9 -3.856,2.556 -1.344,0.657 -2.764,1.16 -4.259,1.502 -1.492,0.344 -2.987,0.515 -4.482,0.515 -4.484,0 -8.345,-1.241 -11.588,-3.72 -3.243,-2.478 -5.671,-5.721 -7.285,-9.728 -1.614,-4.003 -2.421,-8.248 -2.421,-12.729 0,-4.156 0.906,-8.159 2.713,-12.017 1.808,-3.854 4.378,-6.963 7.711,-9.323 3.332,-2.362 7.104,-3.541 11.317,-3.541 2.421,0 4.745,0.53 6.973,1.585 2.226,1.055 3.952,2.553 5.177,4.488 0.836,-3.66 3.034,-5.491 6.589,-5.491 1.255,0 2.392,0.306 3.408,0.917 1.015,0.616 1.807,1.48 2.376,2.602 0.568,1.122 0.851,2.397 0.851,3.832 v 56.528 c 0,1.436 -0.283,2.714 -0.851,3.836 -0.569,1.119 -1.353,1.987 -2.354,2.598"
             style="fill:#37ccfe;fill-opacity:1;fill-rule:nonzero;stroke:none"
             id="path38" /></g><g
           id="g40"
           transform="translate(976,284.1592)"><path
             d="m 0,0 c 0.388,2.96 1.524,5.382 3.406,7.265 1.883,1.881 4.246,2.825 7.082,2.825 2.96,0 5.368,-0.929 7.221,-2.78 C 19.561,5.457 20.668,3.019 21.025,0 Z m 34.25,-2.911 c 0,2.807 -0.585,5.64 -1.748,8.494 -1.166,2.855 -2.78,5.446 -4.842,7.779 -2.06,2.33 -4.58,4.205 -7.555,5.625 -2.974,1.42 -6.175,2.128 -9.617,2.128 -3.346,0 -6.488,-0.678 -9.433,-2.039 -2.945,-1.36 -5.47,-3.25 -7.577,-5.669 -2.107,-2.423 -3.75,-5.188 -4.93,-8.293 -1.182,-3.109 -1.773,-6.306 -1.773,-9.594 0,-4.842 1.033,-9.2 3.094,-13.068 2.063,-3.869 4.991,-6.903 8.785,-9.099 3.799,-2.199 8.1,-3.295 12.912,-3.295 2.364,0 4.864,0.321 7.51,0.962 2.643,0.645 5.022,1.495 7.127,2.557 2.106,1.059 3.795,2.262 5.066,3.608 1.271,1.345 1.905,2.703 1.905,4.078 0,0.958 -0.254,1.867 -0.761,2.736 -0.511,0.864 -1.189,1.576 -2.043,2.128 -0.849,0.556 -1.725,0.831 -2.62,0.831 -0.958,0 -2.49,-0.578 -4.596,-1.726 -2.105,-1.152 -3.861,-2.043 -5.266,-2.669 -1.406,-0.625 -3.109,-0.939 -5.111,-0.939 -3.257,0 -6.038,0.805 -8.338,2.419 -2.303,1.614 -3.675,3.988 -4.126,7.127 h 28.153 c 3.857,0 5.784,1.972 5.784,5.919"
             style="fill:#37ccfe;fill-opacity:1;fill-rule:nonzero;stroke:none"
             id="path42" /></g><g
           id="g44"
           transform="translate(1051.6953,303.0566)"><path
             d="m 0,0 c -1.331,1.122 -2.953,1.682 -4.865,1.682 -2.93,0 -4.886,-1.571 -5.874,-4.708 l -8.472,-26.047 h -0.18 l -8.426,26.047 c -1.048,3.137 -3.005,4.708 -5.874,4.708 -1.913,0 -3.541,-0.568 -4.887,-1.704 -1.342,-1.137 -2.017,-2.721 -2.017,-4.752 0,-1.138 0.269,-2.419 0.809,-3.855 l 13.313,-34.116 c 0.776,-1.943 1.653,-3.347 2.621,-4.212 0.973,-0.868 2.491,-1.301 4.551,-1.301 2.062,0 3.594,0.44 4.596,1.323 0.999,0.88 1.86,2.278 2.576,4.19 L 1.185,-8.629 c 0.541,1.436 0.809,2.717 0.809,3.855 C 1.994,-2.713 1.326,-1.122 0,0"
             style="fill:#37ccfe;fill-opacity:1;fill-rule:nonzero;stroke:none"
             id="path46" /></g><g
           id="g48"
           transform="translate(1076.4717,266.043)"><path
             d="m 0,0 c -0.695,-0.17 -1.544,-0.26 -2.565,-0.26 -1.436,0 -2.655,0.179 -3.654,0.537 -1.003,0.358 -2.183,0.924 -3.541,1.703 -1.36,0.776 -2.489,1.354 -3.384,1.726 -0.898,0.373 -1.946,0.56 -3.138,0.56 -1.674,0 -3.041,-0.679 -4.104,-2.039 -1.058,-1.361 -1.592,-2.639 -1.592,-3.832 0,-1.853 0.988,-3.571 2.959,-5.155 1.973,-1.584 4.403,-2.826 7.284,-3.724 2.885,-0.895 5.629,-1.342 8.226,-1.342 1.623,0 3.165,0.14 4.633,0.405 -1.348,1.989 -2.055,4.282 -2.055,6.744 0,1.648 0.319,3.22 0.931,4.677"
             style="fill:#37ccfe;fill-opacity:1;fill-rule:nonzero;stroke:none"
             id="path50" /></g><g
           id="g52"
           transform="translate(1087.667,273.5156)"><path
             d="M 0,0 C 1.318,0 2.582,-0.207 3.779,-0.595 3.321,1.404 2.405,3.096 1.011,4.46 c -2.076,2.031 -4.589,3.652 -7.533,4.864 -2.942,1.207 -5.729,2.389 -8.361,3.541 -2.628,1.152 -3.943,2.366 -3.943,3.653 0,1.196 0.425,2.106 1.278,2.736 0.85,0.626 1.92,0.939 3.205,0.939 1.282,0 2.449,-0.209 3.496,-0.627 1.044,-0.417 2.532,-1.062 4.459,-1.926 1.927,-0.869 3.235,-1.301 3.924,-1.301 1.526,0 2.8,0.597 3.832,1.793 1.033,1.196 1.547,2.556 1.547,4.081 0,2.002 -0.876,3.735 -2.624,5.2 -1.748,1.461 -3.892,2.553 -6.43,3.273 -2.542,0.714 -5.024,1.073 -7.443,1.073 -3.467,0 -6.56,-0.649 -9.281,-1.949 -2.717,-1.301 -4.838,-3.117 -6.363,-5.447 -1.524,-2.333 -2.289,-5.006 -2.289,-8.024 0,-3.407 1.034,-6.143 3.094,-8.204 2.062,-2.061 4.618,-3.72 7.668,-4.976 3.049,-1.257 5.84,-2.434 8.383,-3.541 2.303,-1.005 3.551,-2.08 3.765,-3.231 C -6.278,-1.249 -3.302,0 0,0"
             style="fill:#37ccfe;fill-opacity:1;fill-rule:nonzero;stroke:none"
             id="path54" /></g><g
           id="g56"
           transform="translate(1092.7324,256.3164)"><path
             d="M 0,0 C 1.405,1.4 2.11,3.086 2.11,5.05 2.11,7.015 1.405,8.699 0,10.101 -0.358,10.457 -0.735,10.768 -1.131,11.033 -1.445,9.03 -2.155,7.183 -3.272,5.497 -4.826,3.152 -7.044,1.301 -9.93,-0.061 -9.95,-0.07 -9.971,-0.078 -9.991,-0.087 -8.623,-1.423 -6.983,-2.1 -5.065,-2.1 -3.094,-2.1 -1.404,-1.398 0,0"
             style="fill:#37ccfe;fill-opacity:1;fill-rule:nonzero;stroke:none"
             id="path58" /></g><g
           id="g60"
           transform="translate(1089.46,261.8135)"><path
             d="m 0,0 c 1.117,1.686 1.827,3.533 2.142,5.536 -1.155,0.776 -2.466,1.166 -3.935,1.166 -1.972,0 -3.652,-0.709 -5.043,-2.121 -1.39,-1.416 -2.083,-3.094 -2.083,-5.028 0,-1.935 0.693,-3.612 2.083,-5.029 0.038,-0.039 0.079,-0.071 0.117,-0.108 0.021,0.009 0.041,0.017 0.062,0.026 C -3.771,-4.196 -1.554,-2.345 0,0"
             style="fill:#37ccfe;fill-opacity:1;fill-rule:nonzero;stroke:none"
             id="path62" /></g><g
           id="g64"
           transform="translate(1113.4453,280.666)"><path
             d="m 0,0 c 1.208,0.902 2.654,1.354 4.339,1.354 1.096,0 2.468,-0.295 4.044,-0.928 1.577,-0.597 2.732,-0.929 3.422,-0.929 1.04,0 1.889,0.5 2.568,1.491 0.682,0.969 1.022,1.983 1.022,3.061 0,1.416 -0.638,2.556 -1.95,3.425 -1.294,0.913 -2.851,1.532 -4.663,1.946 -1.834,0.369 -3.456,0.596 -4.928,0.596 -2.404,0 -4.67,-0.503 -6.757,-1.491 -2.083,-0.969 -3.88,-2.318 -5.398,-4.063 -1.516,-1.73 -2.691,-3.705 -3.511,-5.897 -0.82,-2.21 -1.218,-4.491 -1.218,-6.842 0,-3.258 0.712,-6.304 2.143,-9.088 1.39,-2.784 3.395,-4.994 5.99,-6.631 2.579,-1.637 5.479,-2.453 8.751,-2.453 1.342,0 2.904,0.231 4.73,0.693 1.838,0.451 3.452,1.16 4.794,2.125 1.342,0.995 2.017,2.199 2.017,3.664 0,0.753 -0.176,1.432 -0.556,2.08 -0.373,0.604 -0.85,1.115 -1.484,1.498 -0.619,0.362 -1.296,0.548 -2.008,0.548 -0.277,0 -0.958,-0.19 -2.08,-0.618 -1.074,-0.388 -2.009,-0.728 -2.781,-0.958 -0.775,-0.243 -1.499,-0.366 -2.147,-0.366 -2.431,0 -4.346,0.936 -5.788,2.855 -1.447,1.912 -2.148,4.112 -2.148,6.651 0,1.654 0.306,3.242 0.909,4.711 C -2.087,-2.102 -1.192,-0.897 0,0"
             style="fill:#37ccfe;fill-opacity:1;fill-rule:nonzero;stroke:none"
             id="path66" /></g><g
           id="g68"
           transform="translate(1154.2715,267.7773)"><path
             d="m 0,0 c -0.56,-1.45 -1.417,-2.646 -2.52,-3.545 -1.14,-0.901 -2.512,-1.35 -4.133,-1.35 -1.592,0 -2.942,0.449 -4.064,1.35 -1.129,0.899 -1.978,2.095 -2.545,3.545 -0.559,1.491 -0.82,2.993 -0.82,4.611 0,1.58 0.253,3.131 0.816,4.625 0.571,1.492 1.39,2.68 2.549,3.609 1.149,0.931 2.502,1.397 4.064,1.397 1.621,0 2.997,-0.473 4.151,-1.401 C -1.379,11.916 -0.525,10.69 0.021,9.214 0.566,7.734 0.864,6.191 0.864,4.611 0.864,2.993 0.559,1.491 0,0 m 5.568,17.351 c -1.502,1.721 -3.317,3.056 -5.4,4.063 -2.1,0.98 -4.388,1.49 -6.821,1.49 -2.401,0 -4.653,-0.503 -6.736,-1.49 -2.084,-0.97 -3.899,-2.318 -5.42,-4.063 -1.516,-1.73 -2.683,-3.705 -3.488,-5.897 -0.82,-2.21 -1.242,-4.491 -1.242,-6.843 0,-3.257 0.717,-6.303 2.143,-9.088 1.414,-2.784 3.396,-4.994 5.991,-6.63 2.593,-1.637 5.49,-2.454 8.752,-2.454 2.493,0 4.782,0.497 6.918,1.481 2.098,0.943 3.906,2.269 5.348,3.935 1.488,1.641 2.62,3.579 3.448,5.79 0.824,2.209 1.214,4.543 1.214,6.966 0,2.442 -0.39,4.756 -1.214,6.936 -0.828,2.166 -1.991,4.093 -3.493,5.804"
             style="fill:#37ccfe;fill-opacity:1;fill-rule:nonzero;stroke:none"
             id="path70" /></g><g
           id="g72"
           transform="translate(1217.3867,284.8936)"><path
             d="m 0,0 c -1.093,1.897 -2.599,3.365 -4.529,4.309 -1.931,0.984 -4.212,1.479 -6.769,1.479 -1.614,0 -3.374,-0.458 -5.256,-1.323 -1.885,-0.864 -3.444,-2.024 -4.696,-3.447 -2.546,3.153 -5.789,4.77 -9.758,4.77 -3.444,0 -6.374,-1.323 -8.771,-3.932 -0.171,1.118 -0.633,1.975 -1.39,2.609 -0.761,0.63 -1.752,0.925 -2.964,0.925 -1.412,0 -2.541,-0.493 -3.418,-1.451 -0.845,-0.972 -1.266,-2.232 -1.266,-3.809 v -25.141 c 0,-1.539 0.421,-2.799 1.266,-3.787 0.877,-0.954 2.006,-1.434 3.418,-1.434 0.884,0 1.696,0.211 2.431,0.637 0.734,0.428 1.298,1.062 1.692,1.856 0.414,0.798 0.604,1.703 0.604,2.728 v 16.446 c 0,1.3 0.19,2.437 0.6,3.391 0.41,0.973 0.992,1.703 1.834,2.278 0.839,0.533 1.886,0.816 3.138,0.816 1.122,0 2.121,-0.291 2.952,-0.839 0.831,-0.552 1.458,-1.326 1.89,-2.281 0.429,-0.946 0.656,-2.083 0.656,-3.365 v -16.446 c 0,-1.539 0.443,-2.799 1.297,-3.787 0.873,-0.954 2.002,-1.434 3.414,-1.434 0.884,0 1.696,0.211 2.431,0.637 0.734,0.428 1.298,1.062 1.677,1.856 0.433,0.798 0.622,1.703 0.622,2.728 v 16.446 c 0,1.963 0.515,3.503 1.502,4.696 1.007,1.192 2.375,1.789 4.067,1.789 1.122,0 2.121,-0.291 2.964,-0.839 0.79,-0.552 1.45,-1.326 1.874,-2.281 0.44,-0.946 0.672,-2.083 0.672,-3.365 v -16.446 c 0,-1.539 0.435,-2.799 1.278,-3.787 0.883,-0.954 2.009,-1.434 3.421,-1.434 0.888,0 1.696,0.211 2.434,0.637 0.735,0.428 1.294,1.062 1.677,1.856 0.43,0.798 0.619,1.703 0.619,2.728 V -6.937 C 1.613,-4.245 1.08,-1.946 0,0"
             style="fill:#37ccfe;fill-opacity:1;fill-rule:nonzero;stroke:none"
             id="path74" /></g><g
           id="g76"
           transform="translate(1176.665,728.8921)"><path
             d="m 0,0 c -7.067,6.892 -16.244,10.339 -27.541,10.339 -11.134,0 -20.311,-3.526 -27.534,-10.587 -7.228,-7.063 -10.843,-16.74 -10.843,-29.032 v -89.609 c -1.159,0.572 -2.304,1.155 -3.489,1.7 -0.831,0.38 -1.636,0.784 -2.475,1.155 -17.112,7.495 -35.566,11.243 -55.373,11.243 -19.632,0 -37.959,-3.714 -54.978,-11.124 -17.027,-7.416 -31.709,-17.652 -44.035,-30.711 -10.595,-11.214 -19.095,-23.783 -25.525,-37.67 l 65.649,-76.851 c -1.203,5.915 -1.822,11.965 -1.822,18.16 0,11.949 2.255,23.571 6.773,34.88 4.517,11.298 11.424,20.467 20.716,27.485 9.292,7.027 20.367,10.541 33.222,10.541 13.202,0 24.406,-3.555 33.617,-10.66 9.202,-7.1 16.065,-16.266 20.586,-27.489 1.49,-3.712 2.643,-7.484 3.645,-11.275 2.024,-7.67 3.128,-15.491 3.128,-23.482 0,-8.021 -1.108,-15.789 -3.128,-23.348 -1.032,-3.854 -2.221,-7.674 -3.78,-11.414 -4.603,-11.062 -11.464,-20.022 -20.585,-26.884 -9.118,-6.863 -20.281,-10.292 -33.483,-10.292 -13.027,0 -24.101,3.429 -33.222,10.292 -1.926,1.446 -3.701,3.045 -5.426,4.68 -1.526,1.451 -2.927,3.016 -4.295,4.612 -2.489,2.907 -4.804,5.974 -6.776,9.367 -0.481,0.834 -0.88,1.752 -1.335,2.612 -1.397,2.513 -3.063,4.92 -5.069,7.201 l -71.768,84.007 -21.166,24.779 70.366,62.849 c 10.377,9.486 15.576,19.964 15.576,31.422 0,9.133 -3.221,17.367 -9.665,24.712 -6.446,7.341 -14.414,11.012 -23.907,11.012 -11.82,0 -23.81,-5.734 -35.994,-17.192 l -86.746,-84.068 V 46.15 c 0,8.595 -1.705,16.251 -5.106,22.964 -3.399,6.717 -8.102,11.909 -14.099,15.576 -6.005,3.67 -12.851,5.508 -20.549,5.508 -11.817,0 -21.352,-4.073 -28.605,-12.22 -7.251,-8.152 -10.878,-18.756 -10.878,-31.828 v -232.482 -32.238 -41.738 c 0,-13.075 3.627,-23.684 10.878,-31.828 7.253,-8.144 16.788,-12.214 28.605,-12.214 7.522,0 14.323,1.837 20.415,5.497 6.083,3.676 10.834,8.86 14.233,15.577 3.401,6.717 5.106,14.369 5.106,22.968 v 41.738 22.186 h 1.072 l 96.691,-119.26 c 4.771,-5.726 9.218,-10.377 13.351,-14 3.023,-3.851 6.221,-7.537 9.658,-11.003 2.126,-2.14 4.333,-4.204 6.612,-6.202 6.292,-5.498 13.153,-10.475 20.646,-14.869 21.018,-12.33 44.817,-18.498 71.397,-18.498 20.151,0 38.872,3.671 56.156,11.003 13.057,5.539 24.575,12.557 34.56,21.044 3.231,2.748 6.303,5.647 9.214,8.704 11.897,12.486 21.193,27.079 27.885,43.762 6.272,15.655 9.563,32.133 9.951,49.424 0.026,-1.219 0.078,-2.429 0.078,-3.656 V -29.28 C 10.589,-16.658 7.056,-6.897 0,0"
             style="fill:#37ccfe;fill-opacity:1;fill-rule:nonzero;stroke:none"
             id="path78" /></g></g></g></g></svg>