<svg xmlns="http://www.w3.org/2000/svg" width="64" height="64">
  <path d="M16 63.25a15.15 15.15 0 0 1-10.783-4.466c-5.946-5.946-5.946-15.621 0-21.567l5.485-5.485a3.25 3.25 0 0 1 4.596 4.596l-5.485 5.485c-3.412 3.412-3.412 8.963 0 12.374A8.69 8.69 0 0 0 16 56.75a8.69 8.69 0 0 0 6.187-2.563l12-12c3.412-3.412 3.412-8.963 0-12.374a3.25 3.25 0 0 1 4.596-4.596c5.946 5.946 5.946 15.621 0 21.567l-12 12a15.154 15.154 0 0 1-10.784 4.467zm11.515-23.515a3.238 3.238 0 0 1-2.298-.952c-5.946-5.946-5.946-15.621 0-21.567l12-12A15.151 15.151 0 0 1 48 .749c4.073 0 7.903 1.586 10.784 4.466 5.946 5.946 5.946 15.621 0 21.567l-5.485 5.485a3.25 3.25 0 0 1-4.596-4.596l5.485-5.485c3.412-3.412 3.412-8.963 0-12.374a8.692 8.692 0 0 0-6.187-2.563 8.69 8.69 0 0 0-6.187 2.563l-12 12c-3.412 3.412-3.412 8.963 0 12.374a3.25 3.25 0 0 1-2.298 5.548z" fill="#828282"/>
</svg>