<svg xmlns="http://www.w3.org/2000/svg" viewBox="0 0 539.251 515.381" height="549.739" width="575.201">
  <path d="M250.29 513.808c-6.18-2.692-9.269-7.611-9.269-14.767 0-5.363.565-6.771 4.152-10.358 5.276-5.276 11.488-6.599 17.529-3.732 12.238 5.807 12.411 22.759.29 28.264-6.035 2.741-7.6 2.814-12.702.593zm138.856-24.96c-20.035-8.752-20.934-36.164-1.482-45.221 3.566-1.66 7.889-3.02 9.607-3.023 18.527-.032 31.326 20.069 23.07 36.23-5.536 10.838-20.604 16.64-31.195 12.014zM190.49 478.01c-32.417-5.428-59.948-28.836-69.987-59.51-1.162-3.552-2.795-10.528-3.628-15.502l-1.514-9.043-7.482-2.062c-38.493-10.607-64.686-49.89-59.333-88.988 2.318-16.933 8.241-30.372 19.313-43.82l5.805-7.052-3.227-6.369c-5.047-9.96-7.324-20.597-7.241-33.83.129-20.716 7.897-39.027 22.786-53.71 10.687-10.54 23.004-17.03 39.01-20.555 2.571-.566 4.09-2.36 6.553-7.74 7.89-17.235 24.225-35.949 41.194-47.195 33.107-21.944 77.165-24.158 113.801-5.721l9.894 4.979 6.578-1.912c9.594-2.79 25.958-4.124 37.17-3.032 34.52 3.361 65.722 25.207 80.764 56.543 6.458 13.454 8.79 22.55 9.676 37.756l.73 12.538 7.61 3.575c15.416 7.243 28.047 24.491 30.754 41.996 2.357 15.236-2.97 33.635-12.93 44.66-2.483 2.748-4.515 5.65-4.515 6.449 0 .799 1.343 4.106 2.983 7.348 14.184 28.039 12.892 64.601-3.257 92.146-6.226 10.62-23.712 28.306-33.894 34.28-10.898 6.394-25.892 11.232-39.906 12.876-9.255 1.086-12.6 1.958-13.057 3.402-2.452 7.743-9.246 18.948-15.62 25.762-8.545 9.135-22.213 16.832-34.38 19.36-15.492 3.22-36.333-.825-49.334-9.575-3.457-2.326-6.73-4.23-7.272-4.23-.542 0-4.828 2.246-9.524 4.99-17.748 10.372-39.055 14.444-58.52 11.186zm177.177-109.237c7.63-2.721 9.604-5.215 9.604-12.132 0-9.621-2.532-11.226-24.202-15.338-11.682-2.216-15.36-4.365-17.908-10.463-4.484-10.732.901-29.179 23.097-79.114 12.705-28.583 15.653-37.807 15.748-49.267.073-8.816-.358-10.81-3.638-16.84-6.123-11.254-13.963-15.024-31.222-15.015-8.025.004-11.32.62-16.686 3.118-3.678 1.712-7.707 3.112-8.953 3.112-1.247 0-5.55-2.728-9.564-6.064-9.838-8.175-11.562-8.936-20.258-8.936-9.633 0-13.008 1.355-21.414 8.595-14.558 12.539-15.743 12.664-34.557 3.668-12.523-5.988-14.29-6.492-22.943-6.554-17.49-.125-31.774 9.644-40.089 27.416-9.356 20-39.49 114.738-40.798 128.265-1.302 13.464 4.998 25.007 17.303 31.705 5.422 2.95 8.563 3.724 16.694 4.108 8.603.407 10.806.064 15.623-2.427 3.083-1.595 7.39-5.266 9.57-8.158 2.539-3.366 11.92-25.306 26.076-60.984 12.303-31.009 23.477-57.35 25.191-59.387 9.341-11.101 24.145-1.23 20.452 13.637-.784 3.158-7.578 21.273-15.099 40.256-15.57 39.306-16.422 43.553-10.019 49.957 3.244 3.243 4.515 3.653 11.312 3.653 8.644 0 13.271-1.918 17.903-7.423 1.741-2.07 14.776-26.763 28.965-54.874 14.468-28.665 27.3-52.549 29.215-54.385 1.88-1.8 5.187-3.627 7.351-4.06 3.207-.641 4.556-.165 7.294 2.573 4.947 4.946 3.842 9.28-9.474 37.142-27.039 56.579-26.62 55.542-27.192 67.277-.424 8.718-.032 11.915 2.19 17.809 3.507 9.3 13.082 19.837 21.756 23.94 12.91 6.108 38.46 8.832 48.672 5.19zM85.592 427.92c-1.268-.737-3.103-3.251-4.08-5.587-1.534-3.673-1.532-4.826.012-8.522 2.12-5.074 5.214-6.976 11.35-6.976 9.591 0 13.926 10.912 7.411 18.654-2.546 3.027-4.21 3.838-7.812 3.808-2.517-.02-5.614-.64-6.881-1.377zm406.57-130.185c-7.586-5.112-9.466-13.106-4.859-20.662 5.155-8.454 16.537-9.727 23.622-2.641 7.086 7.085 5.813 18.467-2.64 23.621-5.426 3.308-10.903 3.2-16.123-.318zm-476.594-28.98C1.281 263.66-4.522 245.96 3.913 233.212c5.538-8.37 18.395-12.415 27.965-8.8 8.03 3.035 15.339 13.718 15.339 22.421 0 9.693-7.756 19.83-17.172 22.445-6.007 1.669-8.584 1.575-14.477-.526zm504.107-44.323c-5.993-5.994-4.716-14.44 2.768-18.31 9.767-5.051 20.577 5.805 15.52 15.585-3.848 7.441-12.31 8.702-18.288 2.725zm-56.779-48.861c-5.367-1.147-8.654-3.143-12.289-7.463-7.745-9.205-4.411-24.098 6.65-29.71 6.885-3.493 11.454-3.549 18.323-.224 10.062 4.871 14.003 16.358 8.95 26.088-4.589 8.836-12.892 13.176-21.634 11.309zm-361.312-57.994c-9.943-4.331-13.756-15.94-8.545-26.017 5.657-10.94 24.073-11.26 31.097-.542 5.58 8.517 2.287 21.149-6.71 25.738-5.792 2.956-10.394 3.194-15.842.821zm192.734-57.573c-5.519-1.967-11.399-7.125-14.166-12.427-3.096-5.929-1.745-18.092 2.65-23.853 8.135-10.666 25.016-12.314 34.87-3.403 6.46 5.842 8.978 18.35 5.41 26.887-2.232 5.342-9.589 11.67-15.464 13.302-5.974 1.66-7.377 1.606-13.3-.506zM152.896 25.642c-7.637-3.16-10.782-12.69-6.396-19.385 2.674-4.08 9.26-7.063 13.387-6.063 4.273 1.036 9.628 6.376 10.535 10.507 1.105 5.031-2.465 11.773-7.499 14.162-4.59 2.178-6.319 2.312-10.027.779z" fill="#828282"/>
</svg>